<svg id="ICON" xmlns="http://www.w3.org/2000/svg" width="55.875" height="48.62" viewBox="0 0 55.875 48.62">
  <defs>
    <style>
      .cls-1 {
        fill: #fff;
      }

      .cls-1, .cls-3, .cls-6, .cls-7 {
        fill-rule: evenodd;
      }

      .cls-2, .cls-5, .cls-6, .cls-7 {
        stroke: #fff;
      }

      .cls-2 {
        stroke-linejoin: round;
        stroke-width: 1px;
      }

      .cls-3, .cls-4 {
        fill: #d8d8d8;
        stroke: #979797;
      }

      .cls-3, .cls-4, .cls-5, .cls-6 {
        stroke-width: 1.65px;
      }

      .cls-5, .cls-6, .cls-7 {
        fill: none;
      }

      .cls-7 {
        stroke-width: 1.5px;
      }
    </style>
  </defs>
  <path id="Rectangle" class="cls-1" d="M720.146,3155.21h0.01a0.824,0.824,0,0,1,.825.82v2.14a0.826,0.826,0,0,1-.825.83h-0.01a0.826,0.826,0,0,1-.825-0.83v-2.14A0.823,0.823,0,0,1,720.146,3155.21Z" transform="translate(-692.063 -3110.38)"/>
  <path id="Rectangle-2" data-name="Rectangle" class="cls-1" d="M714.3,3112.42h0a0.824,0.824,0,0,1,1.132.3h0l1.662,2.89a0.837,0.837,0,0,1-.3,1.14h0a0.832,0.832,0,0,1-1.132-.3h0l-1.662-2.9A0.827,0.827,0,0,1,714.3,3112.42Z" transform="translate(-692.063 -3110.38)"/>
  <path id="Rectangle_Copy_9" data-name="Rectangle Copy 9" class="cls-1" d="M725.4,3112.42h0a0.827,0.827,0,0,1,.3,1.13l-1.662,2.9a0.832,0.832,0,0,1-1.132.3h0a0.837,0.837,0,0,1-.3-1.14l1.662-2.89a0.823,0.823,0,0,1,1.132-.3h0Z" transform="translate(-692.063 -3110.38)"/>
  <g id="Combined_Shape" data-name="Combined Shape" class="cls-2">
    <path id="Combined_Shape-2" data-name="Combined Shape" class="cls-3" d="M720.144,3155.32c2.593,0,3.419-29.11-1.765-29.11s-7.608,13-7.759,16.08-0.086,5.08,1.593,7.65S717.552,3155.32,720.144,3155.32Zm-0.289,0c-2.592,0-3.418-29.11,1.766-29.11s7.608,13,7.759,16.08,0.086,5.08-1.593,7.65S722.448,3155.32,719.855,3155.32Z" transform="translate(-692.063 -3110.38)"/>
    <circle id="Oval" class="cls-4" cx="28.015" cy="9.325" r="8.453"/>
  </g>
  <circle id="Oval_Copy_11" data-name="Oval Copy 11" class="cls-5" cx="27.937" cy="11.54" r="6.125"/>
  <g>
    <path id="Path_14" data-name="Path 14" class="cls-1" d="M713.175,3127.63a1.052,1.052,0,0,1,.259.97,0.852,0.852,0,0,1-.627.66,17.648,17.648,0,0,0-14.286,3.57c-3.929,3.04-5.671,6.93-4.335,9.93,1.253,2.82,3.979,3.53,7.693,2.4a18.947,18.947,0,0,0,8.381-5.39l1.295,1.04a20.5,20.5,0,0,1-9.195,5.94c-4.426,1.35-8.036.41-9.69-3.31-1.708-3.84.368-8.47,4.836-11.93S707.919,3126.43,713.175,3127.63Z" transform="translate(-692.063 -3110.38)"/>
    <path id="Path_16" data-name="Path 16" class="cls-6" d="M693.455,3142.11s7.677-1.42,10.378-3.73,5.737-10.07,5.737-10.07" transform="translate(-692.063 -3110.38)"/>
    <path id="Path_17" data-name="Path 17" class="cls-6" d="M704.619,3137.9a5.56,5.56,0,0,1,2.264,2.5,5.948,5.948,0,0,1-.091,3.39" transform="translate(-692.063 -3110.38)"/>
  </g>
  <g id="Group_4_Copy" data-name="Group 4 Copy">
    <path id="Path_14-2" data-name="Path 14" class="cls-1" d="M726.825,3127.63a1.052,1.052,0,0,0-.259.97,0.852,0.852,0,0,0,.627.66,17.648,17.648,0,0,1,14.286,3.57c3.929,3.04,5.67,6.93,4.335,9.93-1.253,2.82-3.979,3.53-7.693,2.4a18.947,18.947,0,0,1-8.381-5.39l-1.3,1.04a20.5,20.5,0,0,0,9.2,5.94c4.426,1.35,8.036.41,9.689-3.31,1.709-3.84-.367-8.47-4.835-11.93S732.081,3126.43,726.825,3127.63Z" transform="translate(-692.063 -3110.38)"/>
    <path id="Path_16-2" data-name="Path 16" class="cls-6" d="M746.545,3142.11s-7.677-1.42-10.379-3.73-5.736-10.07-5.736-10.07" transform="translate(-692.063 -3110.38)"/>
    <path id="Path_17-2" data-name="Path 17" class="cls-6" d="M735.381,3137.9a5.56,5.56,0,0,0-2.264,2.5,5.948,5.948,0,0,0,.091,3.39" transform="translate(-692.063 -3110.38)"/>
  </g>
  <path id="Path_15" data-name="Path 15" class="cls-6" d="M712.377,3134.44a23.489,23.489,0,0,0,7.755,1.86,21.229,21.229,0,0,0,7.5-1.86" transform="translate(-692.063 -3110.38)"/>
  <path id="Path_15_Copy" data-name="Path 15 Copy" class="cls-6" d="M711.17,3139.59s5.461,1.86,8.962,1.86,9.211-1.86,9.211-1.86" transform="translate(-692.063 -3110.38)"/>
  <path id="Path_15_Copy_2" data-name="Path 15 Copy 2" class="cls-6" d="M710.717,3144.75s5.865,1.86,9.367,1.86,9.362-1.86,9.362-1.86" transform="translate(-692.063 -3110.38)"/>
  <path id="Path_15_Copy_3" data-name="Path 15 Copy 3" class="cls-6" d="M712.377,3149.9a23.489,23.489,0,0,0,7.755,1.86,21.229,21.229,0,0,0,7.5-1.86" transform="translate(-692.063 -3110.38)"/>
  <path id="Oval-2" data-name="Oval" class="cls-7" d="M714.8,3122c0.839,0.46,2.125-.26,2.872-1.61s0.674-2.83-.164-3.3-2.125.25-2.872,1.61S713.963,3121.53,714.8,3122Z" transform="translate(-692.063 -3110.38)"/>
  <path id="Oval_Copy_12" data-name="Oval Copy 12" class="cls-7" d="M725.207,3122c-0.839.46-2.124-.26-2.872-1.61s-0.674-2.83.164-3.3,2.125,0.25,2.872,1.61S726.045,3121.53,725.207,3122Z" transform="translate(-692.063 -3110.38)"/>
</svg>
