<?xml version="1.0" encoding="UTF-8"?>
<svg width="206px" height="47px" viewBox="0 0 206 47" version="1.1" xmlns="http://www.w3.org/2000/svg" xmlns:xlink="http://www.w3.org/1999/xlink">
    <!-- Generator: Sketch 52.3 (67297) - http://www.bohemiancoding.com/sketch -->
    <title>LOGO</title>
    <desc>Created with Sketch.</desc>
    <g id="Page-1" stroke="none" stroke-width="1" fill="none" fill-rule="evenodd">
        <g id="Artboard-Copy-5" transform="translate(-114.000000, -6.000000)">
            <g id="BLOCK-MAIN">
                <g id="LOGO" transform="translate(113.000000, 5.000000)">
                    <g transform="translate(103.861930, 24.468499) rotate(-270.000000) translate(-103.861930, -24.468499) translate(80.361930, -78.531501)">
                        <g id="Group-Copy" transform="translate(23.500000, 177.088972) rotate(-90.000000) translate(-23.500000, -177.088972) translate(-4.500000, 153.620473)">
                            <rect id="Rectangle" fill="#FFFFFF" x="27.3207547" y="43.1517556" width="1.66037736" height="3.78524172" rx="0.825"></rect>
                            <path d="M22.303644,0.41650753 L22.3038701,0.416376589 C22.7000162,0.186955038 23.2070673,0.3222357 23.4364005,0.718534406 L23.4373692,0.720212805 L25.0989965,3.60712613 C25.3280221,4.00503553 25.191882,4.51331475 24.7946623,4.74335809 L24.7944362,4.74348903 C24.3982901,4.97291058 23.891239,4.83762992 23.6619058,4.44133122 L23.6609372,4.43965282 L21.9993098,1.55273949 C21.7702842,1.15483009 21.9064243,0.646550871 22.303644,0.41650753 Z" id="Rectangle" fill="#FFFFFF"></path>
                            <path d="M33.3982098,0.416376589 L33.3984359,0.41650753 C33.7956556,0.646550871 33.9317957,1.15483009 33.7027701,1.55273949 L32.0411428,4.43965282 C31.8127362,4.8364867 31.3060025,4.97295266 30.9093215,4.74445806 L30.9076437,4.74348903 L30.9074176,4.74335809 C30.5101979,4.51331475 30.3740578,4.00503553 30.6030834,3.60712613 L32.2647107,0.720212805 C32.4931173,0.323378922 32.999851,0.186912966 33.396532,0.415407563 L33.3982098,0.416376589 Z" id="Rectangle-Copy-9" fill="#FFFFFF"></path>
                            <path d="M24.0488929,15.1409674 C25.246002,15.7927516 26.6176383,16.1629452 28.0754717,16.1629452 C29.4957005,16.1629452 30.8341217,15.8116034 32.0090659,15.1908418 C35.5574356,18.2872834 37.2543791,27.6891001 37.3802624,30.2471157 C37.5316622,33.3236381 37.4656848,35.3244286 35.7865729,37.8917297 C34.1947913,40.325506 30.8229631,42.974018 28.2682161,43.2429315 C28.2274335,43.257747 28.1861761,43.2652759 28.1444614,43.2652759 C28.0966643,43.2652759 28.0485041,43.2643217 28,43.2624325 C27.9514959,43.2643217 27.9033357,43.2652759 27.8555386,43.2652759 C27.8138239,43.2652759 27.7725665,43.257747 27.7317839,43.2429315 C25.1770369,42.974018 21.8052087,40.325506 20.2134271,37.8917297 C18.5343152,35.3244286 18.4683378,33.3236381 18.6197376,30.2471157 C18.7463043,27.675212 20.461037,18.1849919 24.0488929,15.1409674 Z" id="Combined-Shape" stroke="#FFFFFF" stroke-width="1.65"></path>
                            <ellipse id="Oval-Copy-11" stroke="#FFFFFF" stroke-width="1.65" cx="28" cy="9.9173333" rx="6.11320755" ry="6.13209159"></ellipse>
                            <g id="Group-4" transform="translate(0.000000, 15.140967)">
                                <path d="M21.1747146,0.471925384 C21.4481753,0.734690562 21.5345912,1.0571094 21.4339623,1.43918188 C21.3333333,1.82125437 21.1242409,2.04019468 20.8066849,2.0960028 C16.0642532,1.01467778 10.6179311,2.48430633 6.52060358,5.65666328 C2.59208204,8.69832214 0.850550934,12.5815392 2.18634957,15.5790989 C3.43868851,18.3893733 6.16482121,19.1006183 9.87925844,17.9729084 C13.0779667,17.0017747 16.5834461,14.6879721 18.259865,12.5897294 L19.5554968,13.6312969 C17.6646602,15.9979095 13.8732363,18.5004506 10.3602511,19.5669993 C5.93367946,20.9109145 2.3239691,19.9691451 0.670521687,16.2587751 C-1.03761528,12.4256805 1.03792902,7.79769015 5.506079,4.33822382 C9.97597882,0.877402679 15.9193597,-0.726351589 21.1747146,0.471925384 Z" id="Path-14" fill="#FFFFFF" fill-rule="nonzero"></path>
                                <path d="M1.45507321,14.9331321 C6.57295357,13.98754 10.0324282,12.7442241 11.8334971,11.2031843 C13.634566,9.66214453 15.5466707,6.30940232 17.5698113,1.14495765" id="Path-16" stroke="#FFFFFF" stroke-width="1.65"></path>
                                <path d="M12.6188679,10.7255991 C13.7641109,11.3684637 14.5188279,12.1987876 14.8830189,13.2165708 C15.2472098,14.2343541 15.2170212,15.3657702 14.7924528,16.6108192" id="Path-17" stroke="#FFFFFF" stroke-width="1.65"></path>
                            </g>
                            <g id="Group-4-Copy" transform="translate(45.207547, 25.285415) scale(-1, 1) translate(-45.207547, -25.285415) translate(34.415094, 15.140967)">
                                <path d="M21.1747146,0.471925384 C21.4481753,0.734690562 21.5345912,1.0571094 21.4339623,1.43918188 C21.3333333,1.82125437 21.1242409,2.04019468 20.8066849,2.0960028 C16.0642532,1.01467778 10.6179311,2.48430633 6.52060358,5.65666328 C2.59208204,8.69832214 0.850550934,12.5815392 2.18634957,15.5790989 C3.43868851,18.3893733 6.16482121,19.1006183 9.87925844,17.9729084 C13.0779667,17.0017747 16.5834461,14.6879721 18.259865,12.5897294 L19.5554968,13.6312969 C17.6646602,15.9979095 13.8732363,18.5004506 10.3602511,19.5669993 C5.93367946,20.9109145 2.3239691,19.9691451 0.670521687,16.2587751 C-1.03761528,12.4256805 1.03792902,7.79769015 5.506079,4.33822382 C9.97597882,0.877402679 15.9193597,-0.726351589 21.1747146,0.471925384 Z" id="Path-14" fill="#FFFFFF" fill-rule="nonzero"></path>
                                <path d="M1.45507321,14.9331321 C6.57295357,13.98754 10.0324282,12.7442241 11.8334971,11.2031843 C13.634566,9.66214453 15.5466707,6.30940232 17.5698113,1.14495765" id="Path-16" stroke="#FFFFFF" stroke-width="1.65"></path>
                                <path d="M12.6188679,10.7255991 C13.7641109,11.3684637 14.5188279,12.1987876 14.8830189,13.2165708 C15.2472098,14.2343541 15.2170212,15.3657702 14.7924528,16.6108192" id="Path-17" stroke="#FFFFFF" stroke-width="1.65"></path>
                            </g>
                            <path d="M20.3773585,22.408631 C23.2128581,23.6450725 25.7979036,24.2632932 28.1324948,24.2632932 C30.467086,24.2632932 32.9666191,23.6450725 35.6310943,22.408631" id="Path-15" stroke="#FFFFFF" stroke-width="1.65"></path>
                            <path d="M19.1698113,27.5565597 C22.8103424,28.7930012 25.7979036,29.4112219 28.1324948,29.4112219 C30.467086,29.4112219 33.5373864,28.7930012 37.3433962,27.5565597" id="Path-15-Copy" stroke="#FFFFFF" stroke-width="1.65"></path>
                            <path d="M18.7169811,32.7044885 C22.6270708,33.9409299 25.7494112,34.5591507 28.0840024,34.5591507 C30.4185936,34.5591507 33.5392085,33.9409299 37.4458472,32.7044885" id="Path-15-Copy-2" stroke="#FFFFFF" stroke-width="1.65"></path>
                            <path d="M20.3773585,37.8524172 C23.2128581,39.0888587 25.7979036,39.7070794 28.1324948,39.7070794 C30.467086,39.7070794 32.9666191,39.0888587 35.6310943,37.8524172" id="Path-15-Copy-3" stroke="#FFFFFF" stroke-width="1.65"></path>
                            <ellipse id="Oval" stroke="#FFFFFF" stroke-width="1.5" transform="translate(24.155035, 7.533505) rotate(29.000000) translate(-24.155035, -7.533505) " cx="24.1550347" cy="7.53350544" rx="1.73711331" ry="2.79905235"></ellipse>
                            <ellipse id="Oval-Copy-12" stroke="#FFFFFF" stroke-width="1.5" transform="translate(31.853148, 7.533505) scale(-1, 1) rotate(29.000000) translate(-31.853148, -7.533505) " cx="31.8531479" cy="7.53350544" rx="1.73711331" ry="2.79905235"></ellipse>
                        </g>
                        <path d="M-36.3951855,57.6610766 C-35.4451807,57.6610766 -34.620189,57.8185751 -33.9201855,58.1335766 C-33.220182,58.4485782 -32.6801874,58.8985737 -32.3001855,59.4835766 C-31.9201836,60.0685796 -31.7301855,60.7560727 -31.7301855,61.5460766 C-31.7301855,62.3360806 -31.9201836,63.0210737 -32.3001855,63.6010766 C-32.6801874,64.1810795 -33.220182,64.6285751 -33.9201855,64.9435766 C-34.620189,65.2585782 -35.4451807,65.4160766 -36.3951855,65.4160766 L-38.2251855,65.4160766 L-38.2251855,68.1610766 L-41.1951855,68.1610766 L-41.1951855,57.6610766 L-36.3951855,57.6610766 Z M-36.5751855,63.0760766 C-35.9651824,63.0760766 -35.505187,62.943578 -35.1951855,62.6785766 C-34.8851839,62.4135753 -34.7301855,62.0360791 -34.7301855,61.5460766 C-34.7301855,61.0560742 -34.8851839,60.676078 -35.1951855,60.4060766 C-35.505187,60.1360753 -35.9651824,60.0010766 -36.5751855,60.0010766 L-38.2251855,60.0010766 L-38.2251855,63.0760766 L-36.5751855,63.0760766 Z M-23.1051855,66.1210766 L-27.5451855,66.1210766 L-28.3701855,68.1610766 L-31.4001855,68.1610766 L-26.7651855,57.6610766 L-23.8401855,57.6610766 L-19.1901855,68.1610766 L-22.2801855,68.1610766 L-23.1051855,66.1210766 Z M-23.9751855,63.9310766 L-25.3251855,60.5710766 L-26.6751855,63.9310766 L-23.9751855,63.9310766 Z M-14.6601855,68.3710766 C-15.5101897,68.3710766 -16.3351815,68.2660777 -17.1351855,68.0560766 C-17.9351895,67.8460756 -18.585183,67.5660784 -19.0851855,67.2160766 L-18.1101855,65.0260766 C-17.6401831,65.3360782 -17.0951886,65.5860757 -16.4751855,65.7760766 C-15.8551824,65.9660776 -15.2451885,66.0610766 -14.6451855,66.0610766 C-13.5051798,66.0610766 -12.9351855,65.7760795 -12.9351855,65.2060766 C-12.9351855,64.9060751 -13.0976838,64.6835774 -13.4226855,64.5385766 C-13.7476871,64.3935759 -14.2701819,64.2410774 -14.9901855,64.0810766 C-15.7801894,63.9110758 -16.4401828,63.7285776 -16.9701855,63.5335766 C-17.5001881,63.3385757 -17.9551836,63.0260788 -18.3351855,62.5960766 C-18.7151874,62.1660745 -18.9051855,61.5860803 -18.9051855,60.8560766 C-18.9051855,60.2160734 -18.7301872,59.6385792 -18.3801855,59.1235766 C-18.0301837,58.6085741 -17.5076889,58.2010781 -16.8126855,57.9010766 C-16.117682,57.6010751 -15.2651905,57.4510766 -14.2551855,57.4510766 C-13.565182,57.4510766 -12.8851888,57.5285759 -12.2151855,57.6835766 C-11.5451821,57.8385774 -10.955188,58.0660751 -10.4451855,58.3660766 L-11.3601855,60.5710766 C-12.3601905,60.0310739 -13.3301808,59.7610766 -14.2701855,59.7610766 C-14.8601884,59.7610766 -15.2901841,59.8485758 -15.5601855,60.0235766 C-15.8301868,60.1985775 -15.9651855,60.4260752 -15.9651855,60.7060766 C-15.9651855,60.986078 -15.8051871,61.1960759 -15.4851855,61.3360766 C-15.1651839,61.4760773 -14.650189,61.6210759 -13.9401855,61.7710766 C-13.1401815,61.9410775 -12.4776881,62.1235757 -11.9526855,62.3185766 C-11.4276828,62.5135776 -10.9726874,62.8235745 -10.5876855,63.2485766 C-10.2026835,63.6735788 -10.0101855,64.251073 -10.0101855,64.9810766 C-10.0101855,65.6110798 -10.1851837,66.1810741 -10.5351855,66.6910766 C-10.8851872,67.2010792 -11.410182,67.6085751 -12.1101855,67.9135766 C-12.810189,68.2185782 -13.6601805,68.3710766 -14.6601855,68.3710766 Z M-4.95518546,68.3710766 C-5.80518971,68.3710766 -6.63018146,68.2660777 -7.43018546,68.0560766 C-8.23018946,67.8460756 -8.88018296,67.5660784 -9.38018546,67.2160766 L-8.40518546,65.0260766 C-7.93518311,65.3360782 -7.39018856,65.5860757 -6.77018546,65.7760766 C-6.15018236,65.9660776 -5.54018846,66.0610766 -4.94018546,66.0610766 C-3.80017976,66.0610766 -3.23018546,65.7760795 -3.23018546,65.2060766 C-3.23018546,64.9060751 -3.39268384,64.6835774 -3.71768546,64.5385766 C-4.04268709,64.3935759 -4.56518186,64.2410774 -5.28518546,64.0810766 C-6.07518941,63.9110758 -6.73518281,63.7285776 -7.26518546,63.5335766 C-7.79518811,63.3385757 -8.25018356,63.0260788 -8.63018546,62.5960766 C-9.01018736,62.1660745 -9.20018546,61.5860803 -9.20018546,60.8560766 C-9.20018546,60.2160734 -9.02518721,59.6385792 -8.67518546,59.1235766 C-8.32518371,58.6085741 -7.80268894,58.2010781 -7.10768546,57.9010766 C-6.41268199,57.6010751 -5.56019051,57.4510766 -4.55018546,57.4510766 C-3.86018201,57.4510766 -3.18018881,57.5285759 -2.51018546,57.6835766 C-1.84018211,57.8385774 -1.25018801,58.0660751 -0.740185463,58.3660766 L-1.65518546,60.5710766 C-2.65519046,60.0310739 -3.62518076,59.7610766 -4.56518546,59.7610766 C-5.15518841,59.7610766 -5.58518411,59.8485758 -5.85518546,60.0235766 C-6.12518681,60.1985775 -6.26018546,60.4260752 -6.26018546,60.7060766 C-6.26018546,60.986078 -6.10018706,61.1960759 -5.78018546,61.3360766 C-5.46018386,61.4760773 -4.94518901,61.6210759 -4.23518546,61.7710766 C-3.43518146,61.9410775 -2.77268809,62.1235757 -2.24768546,62.3185766 C-1.72268284,62.5135776 -1.26768739,62.8235745 -0.882685463,63.2485766 C-0.497683538,63.6735788 -0.305185463,64.251073 -0.305185463,64.9810766 C-0.305185463,65.6110798 -0.480183713,66.1810741 -0.830185463,66.6910766 C-1.18018721,67.2010792 -1.70518196,67.6085751 -2.40518546,67.9135766 C-3.10518896,68.2185782 -3.95518046,68.3710766 -4.95518546,68.3710766 Z M5.85981454,57.6610766 C6.80981929,57.6610766 7.63481104,57.8185751 8.33481454,58.1335766 C9.03481804,58.4485782 9.57481264,58.8985737 9.95481454,59.4835766 C10.3348164,60.0685796 10.5248145,60.7560727 10.5248145,61.5460766 C10.5248145,62.3360806 10.3348164,63.0210737 9.95481454,63.6010766 C9.57481264,64.1810795 9.03481804,64.6285751 8.33481454,64.9435766 C7.63481104,65.2585782 6.80981929,65.4160766 5.85981454,65.4160766 L4.02981454,65.4160766 L4.02981454,68.1610766 L1.05981454,68.1610766 L1.05981454,57.6610766 L5.85981454,57.6610766 Z M5.67981454,63.0760766 C6.28981759,63.0760766 6.74981299,62.943578 7.05981454,62.6785766 C7.36981609,62.4135753 7.52481454,62.0360791 7.52481454,61.5460766 C7.52481454,61.0560742 7.36981609,60.676078 7.05981454,60.4060766 C6.74981299,60.1360753 6.28981759,60.0010766 5.67981454,60.0010766 L4.02981454,60.0010766 L4.02981454,63.0760766 L5.67981454,63.0760766 Z M17.4098145,68.3710766 C16.299809,68.3710766 15.302319,68.136079 14.4173145,67.6660766 C13.5323101,67.1960743 12.8373171,66.5460808 12.3323145,65.7160766 C11.827312,64.8860725 11.5748145,63.9510818 11.5748145,62.9110766 C11.5748145,61.8710714 11.827312,60.9360808 12.3323145,60.1060766 C12.8373171,59.2760725 13.5323101,58.626079 14.4173145,58.1560766 C15.302319,57.6860743 16.299809,57.4510766 17.4098145,57.4510766 C18.5198201,57.4510766 19.5173101,57.6860743 20.4023145,58.1560766 C21.287319,58.626079 21.982312,59.2760725 22.4873145,60.1060766 C22.9923171,60.9360808 23.2448145,61.8710714 23.2448145,62.9110766 C23.2448145,63.9510818 22.9923171,64.8860725 22.4873145,65.7160766 C21.982312,66.5460808 21.287319,67.1960743 20.4023145,67.6660766 C19.5173101,68.136079 18.5198201,68.3710766 17.4098145,68.3710766 Z M17.4098145,65.9110766 C17.9398172,65.9110766 18.4198124,65.7860779 18.8498145,65.5360766 C19.2798167,65.2860754 19.6198133,64.9335789 19.8698145,64.4785766 C20.1198158,64.0235744 20.2448145,63.5010796 20.2448145,62.9110766 C20.2448145,62.3210737 20.1198158,61.7985789 19.8698145,61.3435766 C19.6198133,60.8885744 19.2798167,60.5360779 18.8498145,60.2860766 C18.4198124,60.0360754 17.9398172,59.9110766 17.4098145,59.9110766 C16.8798119,59.9110766 16.3998167,60.0360754 15.9698145,60.2860766 C15.5398124,60.5360779 15.1998158,60.8885744 14.9498145,61.3435766 C14.6998133,61.7985789 14.5748145,62.3210737 14.5748145,62.9110766 C14.5748145,63.5010796 14.6998133,64.0235744 14.9498145,64.4785766 C15.1998158,64.9335789 15.5398124,65.2860754 15.9698145,65.5360766 C16.3998167,65.7860779 16.8798119,65.9110766 17.4098145,65.9110766 Z M29.3948145,65.3710766 L27.7748145,65.3710766 L27.7748145,68.1610766 L24.8048145,68.1610766 L24.8048145,57.6610766 L29.6048145,57.6610766 C30.5548193,57.6610766 31.379811,57.8185751 32.0798145,58.1335766 C32.779818,58.4485782 33.3198126,58.8985737 33.6998145,59.4835766 C34.0798164,60.0685796 34.2698145,60.7560727 34.2698145,61.5460766 C34.2698145,62.3060804 34.0923163,62.9685738 33.7373145,63.5335766 C33.3823128,64.0985795 32.8748178,64.541075 32.2148145,64.8610766 L34.4798145,68.1610766 L31.2998145,68.1610766 L29.3948145,65.3710766 Z M31.2698145,61.5460766 C31.2698145,61.0560742 31.1148161,60.676078 30.8048145,60.4060766 C30.494813,60.1360753 30.0348176,60.0010766 29.4248145,60.0010766 L27.7748145,60.0010766 L27.7748145,63.0760766 L29.4248145,63.0760766 C30.0348176,63.0760766 30.494813,62.943578 30.8048145,62.6785766 C31.1148161,62.4135753 31.2698145,62.0360791 31.2698145,61.5460766 Z M38.1398145,60.0160766 L34.9148145,60.0160766 L34.9148145,57.6610766 L44.3198145,57.6610766 L44.3198145,60.0160766 L41.1098145,60.0160766 L41.1098145,68.1610766 L38.1398145,68.1610766 L38.1398145,60.0160766 Z M45.4298145,57.6610766 L48.3998145,57.6610766 L48.3998145,68.1610766 L45.4298145,68.1610766 L45.4298145,57.6610766 Z M54.2048145,68.3710766 C53.3548103,68.3710766 52.5298185,68.2660777 51.7298145,68.0560766 C50.9298105,67.8460756 50.279817,67.5660784 49.7798145,67.2160766 L50.7548145,65.0260766 C51.2248169,65.3360782 51.7698114,65.5860757 52.3898145,65.7760766 C53.0098176,65.9660776 53.6198115,66.0610766 54.2198145,66.0610766 C55.3598202,66.0610766 55.9298145,65.7760795 55.9298145,65.2060766 C55.9298145,64.9060751 55.7673162,64.6835774 55.4423145,64.5385766 C55.1173129,64.3935759 54.5948181,64.2410774 53.8748145,64.0810766 C53.0848106,63.9110758 52.4248172,63.7285776 51.8948145,63.5335766 C51.3648119,63.3385757 50.9098164,63.0260788 50.5298145,62.5960766 C50.1498126,62.1660745 49.9598145,61.5860803 49.9598145,60.8560766 C49.9598145,60.2160734 50.1348128,59.6385792 50.4848145,59.1235766 C50.8348163,58.6085741 51.3573111,58.2010781 52.0523145,57.9010766 C52.747318,57.6010751 53.5998095,57.4510766 54.6098145,57.4510766 C55.299818,57.4510766 55.9798112,57.5285759 56.6498145,57.6835766 C57.3198179,57.8385774 57.909812,58.0660751 58.4198145,58.3660766 L57.5048145,60.5710766 C56.5048095,60.0310739 55.5348192,59.7610766 54.5948145,59.7610766 C54.0048116,59.7610766 53.5748159,59.8485758 53.3048145,60.0235766 C53.0348132,60.1985775 52.8998145,60.4260752 52.8998145,60.7060766 C52.8998145,60.986078 53.0598129,61.1960759 53.3798145,61.3360766 C53.6998161,61.4760773 54.214811,61.6210759 54.9248145,61.7710766 C55.7248185,61.9410775 56.3873119,62.1235757 56.9123145,62.3185766 C57.4373172,62.5135776 57.8923126,62.8235745 58.2773145,63.2485766 C58.6623165,63.6735788 58.8548145,64.251073 58.8548145,64.9810766 C58.8548145,65.6110798 58.6798163,66.1810741 58.3298145,66.6910766 C57.9798128,67.2010792 57.454818,67.6085751 56.7548145,67.9135766 C56.054811,68.2185782 55.2048195,68.3710766 54.2048145,68.3710766 Z M62.4548145,60.0160766 L59.2298145,60.0160766 L59.2298145,57.6610766 L68.6348145,57.6610766 L68.6348145,60.0160766 L65.4248145,60.0160766 L65.4248145,68.1610766 L62.4548145,68.1610766 L62.4548145,60.0160766 Z M75.0398145,68.3710766 C73.929809,68.3710766 72.932319,68.136079 72.0473145,67.6660766 C71.1623101,67.1960743 70.4673171,66.5460808 69.9623145,65.7160766 C69.457312,64.8860725 69.2048145,63.9510818 69.2048145,62.9110766 C69.2048145,61.8710714 69.457312,60.9360808 69.9623145,60.1060766 C70.4673171,59.2760725 71.1623101,58.626079 72.0473145,58.1560766 C72.932319,57.6860743 73.929809,57.4510766 75.0398145,57.4510766 C76.1498201,57.4510766 77.1473101,57.6860743 78.0323145,58.1560766 C78.917319,58.626079 79.612312,59.2760725 80.1173145,60.1060766 C80.6223171,60.9360808 80.8748145,61.8710714 80.8748145,62.9110766 C80.8748145,63.9510818 80.6223171,64.8860725 80.1173145,65.7160766 C79.612312,66.5460808 78.917319,67.1960743 78.0323145,67.6660766 C77.1473101,68.136079 76.1498201,68.3710766 75.0398145,68.3710766 Z M75.0398145,65.9110766 C75.5698172,65.9110766 76.0498124,65.7860779 76.4798145,65.5360766 C76.9098167,65.2860754 77.2498133,64.9335789 77.4998145,64.4785766 C77.7498158,64.0235744 77.8748145,63.5010796 77.8748145,62.9110766 C77.8748145,62.3210737 77.7498158,61.7985789 77.4998145,61.3435766 C77.2498133,60.8885744 76.9098167,60.5360779 76.4798145,60.2860766 C76.0498124,60.0360754 75.5698172,59.9110766 75.0398145,59.9110766 C74.5098119,59.9110766 74.0298167,60.0360754 73.5998145,60.2860766 C73.1698124,60.5360779 72.8298158,60.8885744 72.5798145,61.3435766 C72.3298133,61.7985789 72.2048145,62.3210737 72.2048145,62.9110766 C72.2048145,63.5010796 72.3298133,64.0235744 72.5798145,64.4785766 C72.8298158,64.9335789 73.1698124,65.2860754 73.5998145,65.5360766 C74.0298167,65.7860779 74.5098119,65.9110766 75.0398145,65.9110766 Z" id="Passportisto-Copy" fill="#FFFFFF" transform="translate(19.839815, 62.911077) rotate(-90.000000) translate(-19.839815, -62.911077) "></path>
                    </g>
                    <path d="M100.626227,33.9040831 C100.554227,33.8200827 100.458228,33.7390835 100.338227,33.6610831 C100.218226,33.5830827 100.083228,33.5125834 99.933227,33.4495831 C99.7832263,33.3865828 99.6197279,33.3355833 99.442727,33.2965831 C99.2657261,33.2575829 99.081228,33.2380831 98.889227,33.2380831 C98.3912245,33.2380831 98.0267282,33.3310822 97.795727,33.5170831 C97.5647258,33.703084 97.449227,33.9580815 97.449227,34.2820831 C97.449227,34.456084 97.4822267,34.6000825 97.548227,34.7140831 C97.6142273,34.8280837 97.7177263,34.9255827 97.858727,35.0065831 C97.9997277,35.0875835 98.175226,35.1580828 98.385227,35.2180831 C98.5952281,35.2780834 98.8442256,35.3410828 99.132227,35.4070831 C99.4622287,35.4790835 99.7607257,35.5615826 100.027727,35.6545831 C100.294728,35.7475836 100.522726,35.8630824 100.711727,36.0010831 C100.900728,36.1390838 101.044727,36.3070821 101.143727,36.5050831 C101.242727,36.7030841 101.292227,36.9460817 101.292227,37.2340831 C101.292227,37.5400846 101.232228,37.805582 101.112227,38.0305831 C100.992226,38.2555842 100.828728,38.4415824 100.621727,38.5885831 C100.414726,38.7355838 100.170228,38.8435828 99.888227,38.9125831 C99.6062256,38.9815835 99.3002287,39.0160831 98.970227,39.0160831 C98.4782245,39.0160831 98.0117292,38.9395839 97.570727,38.7865831 C97.1297248,38.6335823 96.7292288,38.4100846 96.369227,38.1160831 L96.756227,37.4320831 C96.8522275,37.5340836 96.9767262,37.6360826 97.129727,37.7380831 C97.2827278,37.8400836 97.456726,37.9315827 97.651727,38.0125831 C97.846728,38.0935835 98.0567259,38.1595829 98.281727,38.2105831 C98.5067281,38.2615834 98.7422258,38.2870831 98.988227,38.2870831 C99.4442293,38.2870831 99.7982257,38.2060839 100.050227,38.0440831 C100.302228,37.8820823 100.428227,37.6390847 100.428227,37.3150831 C100.428227,37.1350822 100.387727,36.9835837 100.306727,36.8605831 C100.225727,36.7375825 100.107228,36.6310836 99.951227,36.5410831 C99.7952262,36.4510827 99.6017282,36.3715835 99.370727,36.3025831 C99.1397258,36.2335828 98.8772285,36.1630835 98.583227,36.0910831 C98.2592254,36.0130827 97.9742282,35.9290836 97.728227,35.8390831 C97.4822258,35.7490827 97.2767278,35.6410837 97.111727,35.5150831 C96.9467262,35.3890825 96.8222274,35.236084 96.738227,35.0560831 C96.6542266,34.8760822 96.612227,34.6600844 96.612227,34.4080831 C96.612227,34.1020816 96.6692264,33.8320843 96.783227,33.5980831 C96.8972276,33.3640819 97.056226,33.1660839 97.260227,33.0040831 C97.464228,32.8420823 97.7072256,32.7205835 97.989227,32.6395831 C98.2712284,32.5585827 98.5772254,32.5180831 98.907227,32.5180831 C99.3392292,32.5180831 99.7292253,32.5840824 100.077227,32.7160831 C100.425229,32.8480838 100.734226,33.025082 101.004227,33.2470831 L100.626227,33.9040831 Z M104.429954,39.0430831 C104.075953,39.0430831 103.751956,38.9785838 103.457954,38.8495831 C103.163953,38.7205825 102.911955,38.5450842 102.701954,38.3230831 C102.491953,38.101082 102.328455,37.8415846 102.211454,37.5445831 C102.094454,37.2475816 102.035954,36.9340848 102.035954,36.6040831 C102.035954,36.2740815 102.094454,35.9620846 102.211454,35.6680831 C102.328455,35.3740816 102.493453,35.1160842 102.706454,34.8940831 C102.919455,34.672082 103.172953,34.4965838 103.466954,34.3675831 C103.760956,34.2385825 104.084953,34.1740831 104.438954,34.1740831 C104.792956,34.1740831 105.115453,34.2400824 105.406454,34.3720831 C105.697456,34.5040838 105.944953,34.679582 106.148954,34.8985831 C106.352955,35.1175842 106.510454,35.3725817 106.621454,35.6635831 C106.732455,35.9545846 106.787954,36.2560815 106.787954,36.5680831 C106.787954,36.6340834 106.786454,36.6940828 106.783454,36.7480831 C106.780454,36.8020834 106.775954,36.844083 106.769954,36.8740831 L102.872954,36.8740831 C102.890954,37.1080843 102.944954,37.3210821 103.034954,37.5130831 C103.124955,37.7050841 103.241954,37.8700824 103.385954,38.0080831 C103.529955,38.1460838 103.693453,38.2540827 103.876454,38.3320831 C104.059455,38.4100835 104.252953,38.4490831 104.456954,38.4490831 C104.600955,38.4490831 104.741954,38.4295833 104.879954,38.3905831 C105.017955,38.3515829 105.146954,38.2990834 105.266954,38.2330831 C105.386955,38.1670828 105.493454,38.0860836 105.586454,37.9900831 C105.679455,37.8940826 105.749954,37.7860837 105.797954,37.6660831 L106.481954,37.8550831 C106.403954,38.029084 106.297455,38.1880824 106.162454,38.3320831 C106.027454,38.4760838 105.871455,38.6005826 105.694454,38.7055831 C105.517453,38.8105836 105.320955,38.8930828 105.104954,38.9530831 C104.888953,39.0130834 104.663955,39.0430831 104.429954,39.0430831 Z M106.040954,36.2890831 C106.022954,36.067082 105.967455,35.8615841 105.874454,35.6725831 C105.781454,35.4835822 105.664455,35.3230838 105.523454,35.1910831 C105.382454,35.0590824 105.218955,34.9555835 105.032954,34.8805831 C104.846953,34.8055827 104.648955,34.7680831 104.438954,34.7680831 C104.228953,34.7680831 104.030955,34.8055827 103.844954,34.8805831 C103.658953,34.9555835 103.495455,35.0605824 103.354454,35.1955831 C103.213454,35.3305838 103.099455,35.4910822 103.012454,35.6770831 C102.925454,35.863084 102.872954,36.067082 102.854954,36.2890831 L106.040954,36.2890831 Z M107.477682,36.5950831 C107.477682,36.2650815 107.534681,35.9530846 107.648682,35.6590831 C107.762682,35.3650816 107.924681,35.1085842 108.134682,34.8895831 C108.344683,34.670582 108.59518,34.4965838 108.886182,34.3675831 C109.177183,34.2385825 109.50268,34.1740831 109.862682,34.1740831 C110.330684,34.1740831 110.73418,34.2775821 111.073182,34.4845831 C111.412183,34.6915841 111.668681,34.9690814 111.842682,35.3170831 L111.068682,35.5600831 C110.948681,35.338082 110.780683,35.1655837 110.564682,35.0425831 C110.348681,34.9195825 110.108683,34.8580831 109.844682,34.8580831 C109.628681,34.8580831 109.424683,34.9015827 109.232682,34.9885831 C109.040681,35.0755835 108.875682,35.1970823 108.737682,35.3530831 C108.599681,35.5090839 108.490182,35.6920821 108.409182,35.9020831 C108.328181,36.1120842 108.287682,36.3430818 108.287682,36.5950831 C108.287682,36.8410843 108.329681,37.072082 108.413682,37.2880831 C108.497682,37.5040842 108.610181,37.6915823 108.751182,37.8505831 C108.892182,38.0095839 109.057181,38.1340827 109.246182,38.2240831 C109.435183,38.3140836 109.637681,38.3590831 109.853682,38.3590831 C109.991682,38.3590831 110.128181,38.3395833 110.263182,38.3005831 C110.398182,38.2615829 110.521181,38.2090834 110.632182,38.1430831 C110.743182,38.0770828 110.840681,38.0005835 110.924682,37.9135831 C111.008682,37.8265827 111.068681,37.7320836 111.104682,37.6300831 L111.878682,37.8640831 C111.806681,38.038084 111.706182,38.1970824 111.577182,38.3410831 C111.448181,38.4850838 111.296682,38.6080826 111.122682,38.7100831 C110.948681,38.8120836 110.755183,38.8930828 110.542182,38.9530831 C110.329181,39.0130834 110.105683,39.0430831 109.871682,39.0430831 C109.51768,39.0430831 109.193683,38.9770838 108.899682,38.8450831 C108.60568,38.7130824 108.353683,38.5360842 108.143682,38.3140831 C107.933681,38.092082 107.770182,37.8325846 107.653182,37.5355831 C107.536181,37.2385816 107.477682,36.9250848 107.477682,36.5950831 Z M114.908409,39.0430831 C114.554407,39.0430831 114.23191,38.9770838 113.940909,38.8450831 C113.649907,38.7130824 113.40091,38.5360842 113.193909,38.3140831 C112.986908,38.092082 112.826409,37.8340846 112.712409,37.5400831 C112.598408,37.2460816 112.541409,36.9370847 112.541409,36.6130831 C112.541409,36.2830815 112.599908,35.9710846 112.716909,35.6770831 C112.833909,35.3830816 112.995908,35.1250842 113.202909,34.9030831 C113.40991,34.681082 113.658907,34.5040838 113.949909,34.3720831 C114.24091,34.2400824 114.560407,34.1740831 114.908409,34.1740831 C115.256411,34.1740831 115.577407,34.2400824 115.871409,34.3720831 C116.16541,34.5040838 116.415908,34.681082 116.622909,34.9030831 C116.82991,35.1250842 116.991908,35.3830816 117.108909,35.6770831 C117.225909,35.9710846 117.284409,36.2830815 117.284409,36.6130831 C117.284409,36.9370847 117.227409,37.2460816 117.113409,37.5400831 C116.999408,37.8340846 116.83741,38.092082 116.627409,38.3140831 C116.417408,38.5360842 116.16691,38.7130824 115.875909,38.8450831 C115.584907,38.9770838 115.262411,39.0430831 114.908409,39.0430831 Z M113.351409,36.6220831 C113.351409,36.8680843 113.391908,37.0960821 113.472909,37.3060831 C113.553909,37.5160842 113.664908,37.6990823 113.805909,37.8550831 C113.94691,38.0110839 114.111908,38.1340827 114.300909,38.2240831 C114.48991,38.3140836 114.692408,38.3590831 114.908409,38.3590831 C115.12441,38.3590831 115.326908,38.3140836 115.515909,38.2240831 C115.70491,38.1340827 115.871408,38.0095839 116.015409,37.8505831 C116.15941,37.6915823 116.271908,37.5055842 116.352909,37.2925831 C116.433909,37.079582 116.474409,36.8500843 116.474409,36.6040831 C116.474409,36.3640819 116.433909,36.1375842 116.352909,35.9245831 C116.271908,35.711582 116.15941,35.5255839 116.015409,35.3665831 C115.871408,35.2075823 115.70491,35.0830836 115.515909,34.9930831 C115.326908,34.9030827 115.12441,34.8580831 114.908409,34.8580831 C114.692408,34.8580831 114.48991,34.9045826 114.300909,34.9975831 C114.111908,35.0905836 113.94691,35.2165823 113.805909,35.3755831 C113.664908,35.5345839 113.553909,35.720582 113.472909,35.9335831 C113.391908,36.1465842 113.351409,36.3760819 113.351409,36.6220831 Z M122.447136,38.9530831 L121.655136,38.9530831 L121.655136,36.3250831 C121.655136,35.8210806 121.578637,35.4550842 121.425636,35.2270831 C121.272635,34.999082 121.040138,34.8850831 120.728136,34.8850831 C120.566135,34.8850831 120.404137,34.9165828 120.242136,34.9795831 C120.080135,35.0425834 119.927137,35.1280826 119.783136,35.2360831 C119.639135,35.3440836 119.513137,35.4730824 119.405136,35.6230831 C119.297136,35.7730839 119.216136,35.9380822 119.162136,36.1180831 L119.162136,38.9530831 L118.370136,38.9530831 L118.370136,34.2550831 L119.090136,34.2550831 L119.090136,35.2630831 C119.276137,34.9330815 119.544634,34.6690841 119.895636,34.4710831 C120.246638,34.2730821 120.629134,34.1740831 121.043136,34.1740831 C121.313138,34.1740831 121.538135,34.2235826 121.718136,34.3225831 C121.898137,34.4215836 122.042136,34.5595822 122.150136,34.7365831 C122.258137,34.913584 122.334636,35.1220819 122.379636,35.3620831 C122.424636,35.6020843 122.447136,35.8630817 122.447136,36.1450831 L122.447136,38.9530831 Z M125.737864,39.0430831 C125.413862,39.0430831 125.113865,38.9770838 124.837864,38.8450831 C124.561862,38.7130824 124.324864,38.5360842 124.126864,38.3140831 C123.928863,38.092082 123.774364,37.8340846 123.663364,37.5400831 C123.552363,37.2460816 123.496864,36.9370847 123.496864,36.6130831 C123.496864,36.2830815 123.549363,35.9695846 123.654364,35.6725831 C123.759364,35.3755816 123.906363,35.1160842 124.095364,34.8940831 C124.284364,34.672082 124.509362,34.4965838 124.770364,34.3675831 C125.031365,34.2385825 125.317862,34.1740831 125.629864,34.1740831 C126.007865,34.1740831 126.345362,34.2730821 126.642364,34.4710831 C126.939365,34.6690841 127.174863,34.9090817 127.348864,35.1910831 L127.348864,32.3830831 L128.140864,32.3830831 L128.140864,37.9810831 C128.140864,38.167084 128.224863,38.2630831 128.392864,38.2690831 L128.392864,38.9530831 C128.308863,38.9650832 128.241364,38.9740831 128.190364,38.9800831 C128.139363,38.9860831 128.089864,38.9890831 128.041864,38.9890831 C127.885863,38.9890831 127.749364,38.9365836 127.632364,38.8315831 C127.515363,38.7265826 127.456864,38.6050838 127.456864,38.4670831 L127.456864,38.0710831 C127.270863,38.3770846 127.023365,38.6155823 126.714364,38.7865831 C126.405362,38.957584 126.079865,39.0430831 125.737864,39.0430831 Z M125.926864,38.3590831 C126.070864,38.3590831 126.219363,38.3320834 126.372364,38.2780831 C126.525364,38.2240828 126.669363,38.1490836 126.804364,38.0530831 C126.939364,37.9570826 127.056363,37.8445838 127.155364,37.7155831 C127.254364,37.5865825 127.318863,37.4500838 127.348864,37.3060831 L127.348864,35.9560831 C127.294863,35.8060824 127.213864,35.6635838 127.105864,35.5285831 C126.997863,35.3935824 126.876364,35.2765836 126.741364,35.1775831 C126.606363,35.0785826 126.462364,35.0005834 126.309364,34.9435831 C126.156363,34.8865828 126.004864,34.8580831 125.854864,34.8580831 C125.620862,34.8580831 125.409364,34.9075826 125.220364,35.0065831 C125.031363,35.1055836 124.869364,35.2375823 124.734364,35.4025831 C124.599363,35.5675839 124.495864,35.756582 124.423864,35.9695831 C124.351863,36.1825842 124.315864,36.400082 124.315864,36.6220831 C124.315864,36.8560843 124.357863,37.079582 124.441864,37.2925831 C124.525864,37.5055842 124.639863,37.6900823 124.783864,37.8460831 C124.927864,38.0020839 125.097363,38.1265826 125.292364,38.2195831 C125.487364,38.3125836 125.698862,38.3590831 125.926864,38.3590831 Z M134.515318,39.0430831 C134.125316,39.0430831 133.78182,38.9470841 133.484818,38.7550831 C133.187817,38.5630821 132.952319,38.3200846 132.778318,38.0260831 L132.778318,40.8700831 L131.986318,40.8700831 L131.986318,34.2550831 L132.688318,34.2550831 L132.688318,35.1370831 C132.874319,34.8490817 133.115817,34.616584 133.412818,34.4395831 C133.70982,34.2625822 134.038316,34.1740831 134.398318,34.1740831 C134.72232,34.1740831 135.019317,34.2400824 135.289318,34.3720831 C135.559319,34.5040838 135.793317,34.682582 135.991318,34.9075831 C136.189319,35.1325842 136.343818,35.3920816 136.454818,35.6860831 C136.565819,35.9800846 136.621318,36.2860815 136.621318,36.6040831 C136.621318,36.9400848 136.570319,37.2565816 136.468318,37.5535831 C136.366318,37.8505846 136.222319,38.108582 136.036318,38.3275831 C135.850317,38.5465842 135.628319,38.7205825 135.370318,38.8495831 C135.112317,38.9785838 134.82732,39.0430831 134.515318,39.0430831 Z M134.272318,38.3590831 C134.506319,38.3590831 134.717817,38.3095836 134.906818,38.2105831 C135.095819,38.1115826 135.257817,37.9795839 135.392818,37.8145831 C135.527819,37.6495823 135.631318,37.4620842 135.703318,37.2520831 C135.775318,37.0420821 135.811318,36.8260842 135.811318,36.6040831 C135.811318,36.3700819 135.769319,36.1465842 135.685318,35.9335831 C135.601318,35.720582 135.487319,35.5345839 135.343318,35.3755831 C135.199317,35.2165823 135.029819,35.0905836 134.834818,34.9975831 C134.639817,34.9045826 134.428319,34.8580831 134.200318,34.8580831 C134.056317,34.8580831 133.907819,34.8865828 133.754818,34.9435831 C133.601817,35.0005834 133.457819,35.0755826 133.322818,35.1685831 C133.187817,35.2615836 133.070819,35.3725825 132.971818,35.5015831 C132.872818,35.6305838 132.808318,35.7670824 132.778318,35.9110831 L132.778318,37.2520831 C132.844318,37.4080839 132.928318,37.5535824 133.030318,37.6885831 C133.132319,37.8235838 133.249317,37.9405826 133.381318,38.0395831 C133.513319,38.1385836 133.654317,38.2165828 133.804318,38.2735831 C133.954319,38.3305834 134.110317,38.3590831 134.272318,38.3590831 Z M138.922045,39.0430831 C138.700044,39.0430831 138.493046,39.0055835 138.301045,38.9305831 C138.109044,38.8555827 137.942546,38.7520838 137.801545,38.6200831 C137.660545,38.4880824 137.549546,38.333584 137.468545,38.1565831 C137.387545,37.9795822 137.347045,37.7860842 137.347045,37.5760831 C137.347045,37.360082 137.395045,37.163584 137.491045,36.9865831 C137.587046,36.8095822 137.723545,36.6580837 137.900545,36.5320831 C138.077546,36.4060825 138.287544,36.3070835 138.530545,36.2350831 C138.773547,36.1630827 139.039044,36.1270831 139.327045,36.1270831 C139.555047,36.1270831 139.786044,36.1480829 140.020045,36.1900831 C140.254047,36.2320833 140.461045,36.2890827 140.641045,36.3610831 L140.641045,35.9830831 C140.641045,35.5990812 140.533046,35.2975842 140.317045,35.0785831 C140.101044,34.859582 139.795047,34.7500831 139.399045,34.7500831 C138.925043,34.7500831 138.427048,34.9330813 137.905045,35.2990831 L137.644045,34.7860831 C138.250048,34.3780811 138.859042,34.1740831 139.471045,34.1740831 C140.089048,34.1740831 140.570544,34.3390815 140.915545,34.6690831 C141.260547,34.9990848 141.433045,35.4640801 141.433045,36.0640831 L141.433045,37.9810831 C141.433045,38.167084 141.517045,38.2630831 141.685045,38.2690831 L141.685045,38.9530831 C141.601045,38.9650832 141.532046,38.9740831 141.478045,38.9800831 C141.424045,38.9860831 141.367046,38.9890831 141.307045,38.9890831 C141.151045,38.9890831 141.026546,38.9425836 140.933545,38.8495831 C140.840545,38.7565826 140.785045,38.6440838 140.767045,38.5120831 L140.749045,38.1790831 C140.539044,38.4610845 140.273547,38.6755824 139.952545,38.8225831 C139.631544,38.9695838 139.288047,39.0430831 138.922045,39.0430831 Z M139.129045,38.4490831 C139.411047,38.4490831 139.673544,38.3965836 139.916545,38.2915831 C140.159547,38.1865826 140.344045,38.047084 140.470045,37.8730831 C140.584046,37.7590825 140.641045,37.6420837 140.641045,37.5220831 L140.641045,36.8290831 C140.257043,36.6790824 139.858047,36.6040831 139.444045,36.6040831 C139.048043,36.6040831 138.725547,36.6880823 138.476545,36.8560831 C138.227544,37.0240839 138.103045,37.2430818 138.103045,37.5130831 C138.103045,37.6450838 138.128545,37.7680825 138.179545,37.8820831 C138.230546,37.9960837 138.302545,38.0950827 138.395545,38.1790831 C138.488546,38.2630835 138.598045,38.3290829 138.724045,38.3770831 C138.850046,38.4250833 138.985045,38.4490831 139.129045,38.4490831 Z M144.471773,39.0430831 C144.093771,39.0430831 143.721775,38.9845837 143.355773,38.8675831 C142.989771,38.7505825 142.674774,38.5810842 142.410773,38.3590831 L142.752773,37.8280831 C143.028774,38.0380842 143.304771,38.1955826 143.580773,38.3005831 C143.856774,38.4055836 144.147771,38.4580831 144.453773,38.4580831 C144.795774,38.4580831 145.067272,38.3905838 145.268273,38.2555831 C145.469274,38.1205824 145.569773,37.9300843 145.569773,37.6840831 C145.569773,37.5700825 145.542773,37.4725835 145.488773,37.3915831 C145.434772,37.3105827 145.353773,37.2400834 145.245773,37.1800831 C145.137772,37.1200828 144.999774,37.0660833 144.831773,37.0180831 C144.663772,36.9700829 144.468774,36.9190834 144.246773,36.8650831 C143.964771,36.7930827 143.721774,36.7240834 143.517773,36.6580831 C143.313772,36.5920828 143.145773,36.5140836 143.013773,36.4240831 C142.881772,36.3340827 142.785773,36.2260837 142.725773,36.1000831 C142.665772,35.9740825 142.635773,35.818084 142.635773,35.6320831 C142.635773,35.3980819 142.682272,35.189584 142.775273,35.0065831 C142.868273,34.8235822 142.995772,34.6705837 143.157773,34.5475831 C143.319774,34.4245825 143.510272,34.3315834 143.729273,34.2685831 C143.948274,34.2055828 144.183771,34.1740831 144.435773,34.1740831 C144.789774,34.1740831 145.119771,34.2310825 145.425773,34.3450831 C145.731774,34.4590837 145.989772,34.6090822 146.199773,34.7950831 L145.839773,35.2720831 C145.641772,35.0980822 145.419774,34.9675835 145.173773,34.8805831 C144.927771,34.7935827 144.675774,34.7500831 144.417773,34.7500831 C144.129771,34.7500831 143.885274,34.8115825 143.684273,34.9345831 C143.483272,35.0575837 143.382773,35.2540818 143.382773,35.5240831 C143.382773,35.6320836 143.402273,35.7220827 143.441273,35.7940831 C143.480273,35.8660835 143.544772,35.9290828 143.634773,35.9830831 C143.724773,36.0370834 143.840272,36.0850829 143.981273,36.1270831 C144.122273,36.1690833 144.291772,36.2140829 144.489773,36.2620831 C144.801774,36.3340835 145.073272,36.4075827 145.304273,36.4825831 C145.535274,36.5575835 145.727272,36.6460826 145.880273,36.7480831 C146.033273,36.8500836 146.147272,36.9700824 146.222273,37.1080831 C146.297273,37.2460838 146.334773,37.4140821 146.334773,37.6120831 C146.334773,38.0500853 146.166774,38.3980818 145.830773,38.6560831 C145.494771,38.9140844 145.041776,39.0430831 144.471773,39.0430831 Z M149.0405,39.0430831 C148.662498,39.0430831 148.290502,38.9845837 147.9245,38.8675831 C147.558498,38.7505825 147.243501,38.5810842 146.9795,38.3590831 L147.3215,37.8280831 C147.597501,38.0380842 147.873499,38.1955826 148.1495,38.3005831 C148.425501,38.4055836 148.716498,38.4580831 149.0225,38.4580831 C149.364502,38.4580831 149.635999,38.3905838 149.837,38.2555831 C150.038001,38.1205824 150.1385,37.9300843 150.1385,37.6840831 C150.1385,37.5700825 150.1115,37.4725835 150.0575,37.3915831 C150.0035,37.3105827 149.922501,37.2400834 149.8145,37.1800831 C149.706499,37.1200828 149.568501,37.0660833 149.4005,37.0180831 C149.232499,36.9700829 149.037501,36.9190834 148.8155,36.8650831 C148.533499,36.7930827 148.290501,36.7240834 148.0865,36.6580831 C147.882499,36.5920828 147.714501,36.5140836 147.5825,36.4240831 C147.450499,36.3340827 147.3545,36.2260837 147.2945,36.1000831 C147.2345,35.9740825 147.2045,35.818084 147.2045,35.6320831 C147.2045,35.3980819 147.251,35.189584 147.344,35.0065831 C147.437,34.8235822 147.564499,34.6705837 147.7265,34.5475831 C147.888501,34.4245825 148.078999,34.3315834 148.298,34.2685831 C148.517001,34.2055828 148.752499,34.1740831 149.0045,34.1740831 C149.358502,34.1740831 149.688498,34.2310825 149.9945,34.3450831 C150.300502,34.4590837 150.558499,34.6090822 150.7685,34.7950831 L150.4085,35.2720831 C150.210499,35.0980822 149.988501,34.9675835 149.7425,34.8805831 C149.496499,34.7935827 149.244501,34.7500831 148.9865,34.7500831 C148.698499,34.7500831 148.454001,34.8115825 148.253,34.9345831 C148.051999,35.0575837 147.9515,35.2540818 147.9515,35.5240831 C147.9515,35.6320836 147.971,35.7220827 148.01,35.7940831 C148.049,35.8660835 148.1135,35.9290828 148.2035,35.9830831 C148.2935,36.0370834 148.408999,36.0850829 148.55,36.1270831 C148.691001,36.1690833 148.860499,36.2140829 149.0585,36.2620831 C149.370502,36.3340835 149.641999,36.4075827 149.873,36.4825831 C150.104001,36.5575835 150.295999,36.6460826 150.449,36.7480831 C150.602001,36.8500836 150.716,36.9700824 150.791,37.1080831 C150.866,37.2460838 150.9035,37.4140821 150.9035,37.6120831 C150.9035,38.0500853 150.735502,38.3980818 150.3995,38.6560831 C150.063498,38.9140844 149.610503,39.0430831 149.0405,39.0430831 Z M154.491227,39.0430831 C154.101225,39.0430831 153.757729,38.9470841 153.460727,38.7550831 C153.163726,38.5630821 152.928228,38.3200846 152.754227,38.0260831 L152.754227,40.8700831 L151.962227,40.8700831 L151.962227,34.2550831 L152.664227,34.2550831 L152.664227,35.1370831 C152.850228,34.8490817 153.091726,34.616584 153.388727,34.4395831 C153.685729,34.2625822 154.014226,34.1740831 154.374227,34.1740831 C154.698229,34.1740831 154.995226,34.2400824 155.265227,34.3720831 C155.535229,34.5040838 155.769226,34.682582 155.967227,34.9075831 C156.165228,35.1325842 156.319727,35.3920816 156.430727,35.6860831 C156.541728,35.9800846 156.597227,36.2860815 156.597227,36.6040831 C156.597227,36.9400848 156.546228,37.2565816 156.444227,37.5535831 C156.342227,37.8505846 156.198228,38.108582 156.012227,38.3275831 C155.826226,38.5465842 155.604229,38.7205825 155.346227,38.8495831 C155.088226,38.9785838 154.803229,39.0430831 154.491227,39.0430831 Z M154.248227,38.3590831 C154.482228,38.3590831 154.693726,38.3095836 154.882727,38.2105831 C155.071728,38.1115826 155.233727,37.9795839 155.368727,37.8145831 C155.503728,37.6495823 155.607227,37.4620842 155.679227,37.2520831 C155.751228,37.0420821 155.787227,36.8260842 155.787227,36.6040831 C155.787227,36.3700819 155.745228,36.1465842 155.661227,35.9335831 C155.577227,35.720582 155.463228,35.5345839 155.319227,35.3755831 C155.175227,35.2165823 155.005728,35.0905836 154.810727,34.9975831 C154.615726,34.9045826 154.404228,34.8580831 154.176227,34.8580831 C154.032227,34.8580831 153.883728,34.8865828 153.730727,34.9435831 C153.577727,35.0005834 153.433728,35.0755826 153.298727,35.1685831 C153.163727,35.2615836 153.046728,35.3725825 152.947727,35.5015831 C152.848727,35.6305838 152.784227,35.7670824 152.754227,35.9110831 L152.754227,37.2520831 C152.820228,37.4080839 152.904227,37.5535824 153.006227,37.6885831 C153.108228,37.8235838 153.225227,37.9405826 153.357227,38.0395831 C153.489228,38.1385836 153.630227,38.2165828 153.780227,38.2735831 C153.930228,38.3305834 154.086226,38.3590831 154.248227,38.3590831 Z M159.743955,39.0430831 C159.389953,39.0430831 159.067456,38.9770838 158.776455,38.8450831 C158.485453,38.7130824 158.236456,38.5360842 158.029455,38.3140831 C157.822454,38.092082 157.661955,37.8340846 157.547955,37.5400831 C157.433954,37.2460816 157.376955,36.9370847 157.376955,36.6130831 C157.376955,36.2830815 157.435454,35.9710846 157.552455,35.6770831 C157.669455,35.3830816 157.831454,35.1250842 158.038455,34.9030831 C158.245456,34.681082 158.494453,34.5040838 158.785455,34.3720831 C159.076456,34.2400824 159.395953,34.1740831 159.743955,34.1740831 C160.091956,34.1740831 160.412953,34.2400824 160.706955,34.3720831 C161.000956,34.5040838 161.251454,34.681082 161.458455,34.9030831 C161.665456,35.1250842 161.827454,35.3830816 161.944455,35.6770831 C162.061455,35.9710846 162.119955,36.2830815 162.119955,36.6130831 C162.119955,36.9370847 162.062955,37.2460816 161.948955,37.5400831 C161.834954,37.8340846 161.672956,38.092082 161.462955,38.3140831 C161.252954,38.5360842 161.002456,38.7130824 160.711455,38.8450831 C160.420453,38.9770838 160.097956,39.0430831 159.743955,39.0430831 Z M158.186955,36.6220831 C158.186955,36.8680843 158.227454,37.0960821 158.308455,37.3060831 C158.389455,37.5160842 158.500454,37.6990823 158.641455,37.8550831 C158.782455,38.0110839 158.947454,38.1340827 159.136455,38.2240831 C159.325456,38.3140836 159.527954,38.3590831 159.743955,38.3590831 C159.959956,38.3590831 160.162454,38.3140836 160.351455,38.2240831 C160.540456,38.1340827 160.706954,38.0095839 160.850955,37.8505831 C160.994955,37.6915823 161.107454,37.5055842 161.188455,37.2925831 C161.269455,37.079582 161.309955,36.8500843 161.309955,36.6040831 C161.309955,36.3640819 161.269455,36.1375842 161.188455,35.9245831 C161.107454,35.711582 160.994955,35.5255839 160.850955,35.3665831 C160.706954,35.2075823 160.540456,35.0830836 160.351455,34.9930831 C160.162454,34.9030827 159.959956,34.8580831 159.743955,34.8580831 C159.527954,34.8580831 159.325456,34.9045826 159.136455,34.9975831 C158.947454,35.0905836 158.782455,35.2165823 158.641455,35.3755831 C158.500454,35.5345839 158.389455,35.720582 158.308455,35.9335831 C158.227454,36.1465842 158.186955,36.3760819 158.186955,36.6220831 Z M165.689682,34.9480831 C165.29368,34.9600832 164.944183,35.0620821 164.641182,35.2540831 C164.33818,35.4460841 164.123683,35.7130814 163.997682,36.0550831 L163.997682,38.9530831 L163.205682,38.9530831 L163.205682,34.2550831 L163.943682,34.2550831 L163.943682,35.3440831 C164.105683,35.0200815 164.318681,34.7575841 164.582682,34.5565831 C164.846683,34.3555821 165.12868,34.2430832 165.428682,34.2190831 L165.581682,34.2190831 C165.623682,34.2190831 165.659682,34.2220831 165.689682,34.2280831 L165.689682,34.9480831 Z M169.025409,38.7190831 C168.977409,38.7430832 168.91441,38.7715829 168.836409,38.8045831 C168.758409,38.8375833 168.66991,38.8705829 168.570909,38.9035831 C168.471909,38.9365833 168.36391,38.963583 168.246909,38.9845831 C168.129909,39.0055832 168.00841,39.0160831 167.882409,39.0160831 C167.594408,39.0160831 167.34541,38.9365839 167.135409,38.7775831 C166.925408,38.6185823 166.820409,38.3710848 166.820409,38.0350831 L166.820409,34.8760831 L166.181409,34.8760831 L166.181409,34.2550831 L166.820409,34.2550831 L166.820409,32.6890831 L167.612409,32.6890831 L167.612409,34.2550831 L168.665409,34.2550831 L168.665409,34.8760831 L167.612409,34.8760831 L167.612409,37.7920831 C167.624409,37.966084 167.681409,38.0920827 167.783409,38.1700831 C167.88541,38.2480835 168.005409,38.2870831 168.143409,38.2870831 C168.29941,38.2870831 168.441909,38.2615834 168.570909,38.2105831 C168.69991,38.1595829 168.788409,38.1190833 168.836409,38.0890831 L169.025409,38.7190831 Z M173.932864,39.0430831 C173.554862,39.0430831 173.182866,38.9845837 172.816864,38.8675831 C172.450862,38.7505825 172.135865,38.5810842 171.871864,38.3590831 L172.213864,37.8280831 C172.489865,38.0380842 172.765862,38.1955826 173.041864,38.3005831 C173.317865,38.4055836 173.608862,38.4580831 173.914864,38.4580831 C174.256866,38.4580831 174.528363,38.3905838 174.729364,38.2555831 C174.930365,38.1205824 175.030864,37.9300843 175.030864,37.6840831 C175.030864,37.5700825 175.003864,37.4725835 174.949864,37.3915831 C174.895864,37.3105827 174.814864,37.2400834 174.706864,37.1800831 C174.598863,37.1200828 174.460865,37.0660833 174.292864,37.0180831 C174.124863,36.9700829 173.929865,36.9190834 173.707864,36.8650831 C173.425862,36.7930827 173.182865,36.7240834 172.978864,36.6580831 C172.774863,36.5920828 172.606864,36.5140836 172.474864,36.4240831 C172.342863,36.3340827 172.246864,36.2260837 172.186864,36.1000831 C172.126864,35.9740825 172.096864,35.818084 172.096864,35.6320831 C172.096864,35.3980819 172.143363,35.189584 172.236364,35.0065831 C172.329364,34.8235822 172.456863,34.6705837 172.618864,34.5475831 C172.780865,34.4245825 172.971363,34.3315834 173.190364,34.2685831 C173.409365,34.2055828 173.644863,34.1740831 173.896864,34.1740831 C174.250866,34.1740831 174.580862,34.2310825 174.886864,34.3450831 C175.192865,34.4590837 175.450863,34.6090822 175.660864,34.7950831 L175.300864,35.2720831 C175.102863,35.0980822 174.880865,34.9675835 174.634864,34.8805831 C174.388863,34.7935827 174.136865,34.7500831 173.878864,34.7500831 C173.590862,34.7500831 173.346365,34.8115825 173.145364,34.9345831 C172.944363,35.0575837 172.843864,35.2540818 172.843864,35.5240831 C172.843864,35.6320836 172.863364,35.7220827 172.902364,35.7940831 C172.941364,35.8660835 173.005863,35.9290828 173.095864,35.9830831 C173.185864,36.0370834 173.301363,36.0850829 173.442364,36.1270831 C173.583365,36.1690833 173.752863,36.2140829 173.950864,36.2620831 C174.262865,36.3340835 174.534363,36.4075827 174.765364,36.4825831 C174.996365,36.5575835 175.188363,36.6460826 175.341364,36.7480831 C175.494365,36.8500836 175.608363,36.9700824 175.683364,37.1080831 C175.758364,37.2460838 175.795864,37.4140821 175.795864,37.6120831 C175.795864,38.0500853 175.627865,38.3980818 175.291864,38.6560831 C174.955862,38.9140844 174.502867,39.0430831 173.932864,39.0430831 Z M180.931591,38.9530831 L180.139591,38.9530831 L180.139591,36.3250831 C180.139591,35.8390807 180.055592,35.4775843 179.887591,35.2405831 C179.71959,35.0035819 179.473593,34.8850831 179.149591,34.8850831 C178.99359,34.8850831 178.837592,34.9165828 178.681591,34.9795831 C178.52559,35.0425834 178.380092,35.1280826 178.245091,35.2360831 C178.11009,35.3440836 177.990092,35.4730824 177.885091,35.6230831 C177.780091,35.7730839 177.700591,35.9380822 177.646591,36.1180831 L177.646591,38.9530831 L176.854591,38.9530831 L176.854591,32.3830831 L177.646591,32.3830831 L177.646591,35.2630831 C177.832592,34.9210814 178.08459,34.6540841 178.402591,34.4620831 C178.720593,34.2700821 179.068589,34.1740831 179.446591,34.1740831 C179.722592,34.1740831 179.95659,34.2250826 180.148591,34.3270831 C180.340592,34.4290836 180.493591,34.5670822 180.607591,34.7410831 C180.721592,34.915084 180.804091,35.1235819 180.855091,35.3665831 C180.906091,35.6095843 180.931591,35.8690817 180.931591,36.1450831 L180.931591,38.9530831 Z M184.339318,39.0430831 C183.985317,39.0430831 183.66282,38.9770838 183.371818,38.8450831 C183.080817,38.7130824 182.831819,38.5360842 182.624818,38.3140831 C182.417817,38.092082 182.257319,37.8340846 182.143318,37.5400831 C182.029318,37.2460816 181.972318,36.9370847 181.972318,36.6130831 C181.972318,36.2830815 182.030818,35.9710846 182.147818,35.6770831 C182.264819,35.3830816 182.426817,35.1250842 182.633818,34.9030831 C182.840819,34.681082 183.089817,34.5040838 183.380818,34.3720831 C183.67182,34.2400824 183.991317,34.1740831 184.339318,34.1740831 C184.68732,34.1740831 185.008317,34.2400824 185.302318,34.3720831 C185.59632,34.5040838 185.846817,34.681082 186.053818,34.9030831 C186.260819,35.1250842 186.422818,35.3830816 186.539818,35.6770831 C186.656819,35.9710846 186.715318,36.2830815 186.715318,36.6130831 C186.715318,36.9370847 186.658319,37.2460816 186.544318,37.5400831 C186.430318,37.8340846 186.268319,38.092082 186.058318,38.3140831 C185.848317,38.5360842 185.59782,38.7130824 185.306818,38.8450831 C185.015817,38.9770838 184.69332,39.0430831 184.339318,39.0430831 Z M182.782318,36.6220831 C182.782318,36.8680843 182.822818,37.0960821 182.903818,37.3060831 C182.984819,37.5160842 183.095818,37.6990823 183.236818,37.8550831 C183.377819,38.0110839 183.542817,38.1340827 183.731818,38.2240831 C183.920819,38.3140836 184.123317,38.3590831 184.339318,38.3590831 C184.555319,38.3590831 184.757817,38.3140836 184.946818,38.2240831 C185.135819,38.1340827 185.302318,38.0095839 185.446318,37.8505831 C185.590319,37.6915823 185.702818,37.5055842 185.783818,37.2925831 C185.864819,37.079582 185.905318,36.8500843 185.905318,36.6040831 C185.905318,36.3640819 185.864819,36.1375842 185.783818,35.9245831 C185.702818,35.711582 185.590319,35.5255839 185.446318,35.3665831 C185.302318,35.2075823 185.135819,35.0830836 184.946818,34.9930831 C184.757817,34.9030827 184.555319,34.8580831 184.339318,34.8580831 C184.123317,34.8580831 183.920819,34.9045826 183.731818,34.9975831 C183.542817,35.0905836 183.377819,35.2165823 183.236818,35.3755831 C183.095818,35.5345839 182.984819,35.720582 182.903818,35.9335831 C182.822818,36.1465842 182.782318,36.3760819 182.782318,36.6220831 Z M190.330046,39.0430831 C189.940044,39.0430831 189.596547,38.9470841 189.299546,38.7550831 C189.002544,38.5630821 188.767047,38.3200846 188.593046,38.0260831 L188.593046,40.8700831 L187.801046,40.8700831 L187.801046,34.2550831 L188.503046,34.2550831 L188.503046,35.1370831 C188.689047,34.8490817 188.930544,34.616584 189.227546,34.4395831 C189.524547,34.2625822 189.853044,34.1740831 190.213046,34.1740831 C190.537047,34.1740831 190.834044,34.2400824 191.104046,34.3720831 C191.374047,34.5040838 191.608045,34.682582 191.806046,34.9075831 C192.004047,35.1325842 192.158545,35.3920816 192.269546,35.6860831 C192.380546,35.9800846 192.436046,36.2860815 192.436046,36.6040831 C192.436046,36.9400848 192.385046,37.2565816 192.283046,37.5535831 C192.181045,37.8505846 192.037047,38.108582 191.851046,38.3275831 C191.665045,38.5465842 191.443047,38.7205825 191.185046,38.8495831 C190.927044,38.9785838 190.642047,39.0430831 190.330046,39.0430831 Z M190.087046,38.3590831 C190.321047,38.3590831 190.532545,38.3095836 190.721546,38.2105831 C190.910547,38.1115826 191.072545,37.9795839 191.207546,37.8145831 C191.342546,37.6495823 191.446045,37.4620842 191.518046,37.2520831 C191.590046,37.0420821 191.626046,36.8260842 191.626046,36.6040831 C191.626046,36.3700819 191.584046,36.1465842 191.500046,35.9335831 C191.416045,35.720582 191.302046,35.5345839 191.158046,35.3755831 C191.014045,35.2165823 190.844547,35.0905836 190.649546,34.9975831 C190.454545,34.9045826 190.243047,34.8580831 190.015046,34.8580831 C189.871045,34.8580831 189.722546,34.8865828 189.569546,34.9435831 C189.416545,35.0005834 189.272546,35.0755826 189.137546,35.1685831 C189.002545,35.2615836 188.885546,35.3725825 188.786546,35.5015831 C188.687545,35.6305838 188.623046,35.7670824 188.593046,35.9110831 L188.593046,37.2520831 C188.659046,37.4080839 188.743045,37.5535824 188.845046,37.6885831 C188.947046,37.8235838 189.064045,37.9405826 189.196046,38.0395831 C189.328046,38.1385836 189.469045,38.2165828 189.619046,38.2735831 C189.769046,38.3305834 189.925045,38.3590831 190.087046,38.3590831 Z" id="Second-passport-shop" fill="#FFFFFF"></path>
                    <path d="M82.2548145,35.5591507 L92.0489194,35.5591507" id="Line" stroke="#FFFFFF" stroke-linecap="square"></path>
                    <path d="M196.205895,35.5591507 L206,35.5591507" id="Line-Copy" stroke="#FFFFFF" stroke-linecap="square"></path>
                </g>
            </g>
        </g>
    </g>
</svg>