<svg xmlns="http://www.w3.org/2000/svg" width="34" height="34" viewBox="0 0 34 34"><g><g><path fill="#333" d="M17 33.5C7.887 33.5.5 26.112.5 17 .5 7.887 7.887.5 17 .5S33.5 7.887 33.5 17c0 9.112-7.387 16.5-16.5 16.5zm3.41-29.566A24.497 24.497 0 0 1 24.42 15.5h5.998c-.62-5.606-4.672-10.177-10.007-11.566zm.001 26.131c5.336-1.389 9.387-5.96 10.007-11.565h-5.993a24.452 24.452 0 0 1-4.014 11.565zm-6.822 0A24.497 24.497 0 0 1 9.579 18.5H3.582c.62 5.605 4.671 10.176 10.007 11.565zm0-26.13C8.252 5.323 4.201 9.894 3.581 15.5h5.993a24.452 24.452 0 0 1 4.013-11.566zM17 29.672A21.433 21.433 0 0 0 21.418 18.5h-8.832A21.45 21.45 0 0 0 17 29.673zm0-25.347A21.433 21.433 0 0 0 12.582 15.5h8.832A21.45 21.45 0 0 0 17 4.326z"/></g></g></svg>