<svg width="87" height="64" viewBox="0 0 87 64" fill="none" xmlns="http://www.w3.org/2000/svg">
<path d="M70.1786 31.9945C78.6253 32.0064 78.4272 40.4581 85.193 40.4581C84.7446 45.6852 83.7034 53.9998 83.7034 53.9998H13.7121L15.024 40.4564H61.6998L62.4363 31.9945H70.1619C70.1669 31.9945 70.1735 31.9945 70.1786 31.9945Z" fill="#CCD1D9"/>
<path d="M80.2718 38.3635L78.6249 53.9998H83.7036C83.7036 53.9998 84.7446 45.6852 85.1932 40.4581C82.9967 40.4581 81.5344 39.5669 80.2718 38.3635Z" fill="#AAB2BC"/>
<path d="M28.9465 45.6023C33.5846 45.6023 37.3441 49.3618 37.3441 53.9998C37.3441 58.6362 33.5846 62.3957 28.9465 62.3957C24.3102 62.3957 20.5507 58.6362 20.5507 53.9998C20.5507 49.3618 24.3102 45.6023 28.9465 45.6023Z" fill="#656D78"/>
<path d="M68.469 45.6023C73.107 45.6023 76.8666 49.3618 76.8666 53.9998C76.8666 58.6362 73.107 62.3957 68.469 62.3957C63.8327 62.3957 60.0732 58.6362 60.0732 53.9998C60.0733 49.3618 63.8328 45.6023 68.469 45.6023Z" fill="#656D78"/>
<path d="M28.9466 50.6143C30.817 50.6143 32.332 52.1293 32.332 53.9998C32.332 55.8685 30.817 57.3852 28.9466 57.3852C27.0761 57.3852 25.5611 55.8685 25.5611 53.9998C25.5611 52.1293 27.0761 50.6143 28.9466 50.6143Z" fill="#CCD1D9"/>
<path d="M68.469 50.6143C70.3395 50.6143 71.8544 52.1293 71.8544 53.9998C71.8544 55.8685 70.3395 57.3852 68.469 57.3852C66.6003 57.3852 65.0836 55.8685 65.0836 53.9998C65.0836 52.1293 66.6003 50.6143 68.469 50.6143Z" fill="#CCD1D9"/>
<path d="M71.0606 21.8653C70.7643 21.8467 70.4647 21.8382 70.1634 21.8382H63.3232H63.3215L62.4362 31.9945H70.1617C70.1668 31.9945 70.1736 31.9945 70.1787 31.9945C78.6253 32.0063 78.4272 40.4581 85.193 40.4581C85.3183 39.0142 85.3978 37.8056 85.3978 37.0726C85.3978 28.9527 79.062 22.3274 71.0606 21.8653Z" fill="#5D9CEC"/>
<path d="M71.0605 21.8653C70.7643 21.8467 70.4647 21.8382 70.1634 21.8382H65.0848C65.3861 21.8382 65.6857 21.8467 65.9819 21.8653C73.9835 22.3274 80.3192 28.9527 80.3192 37.0726C80.3192 37.4098 80.3021 37.8484 80.2718 38.3635C81.5344 39.5668 82.9967 40.4581 85.193 40.4581C85.3183 39.0142 85.3978 37.8056 85.3978 37.0726C85.3978 28.9527 79.062 22.3274 71.0605 21.8653Z" fill="#4A89DC"/>
<path d="M17.812 11.682L18.7902 1.58325H65.0852L63.3214 21.8382L62.4363 31.9945L61.6998 40.4564H15.024L16.0074 30.3018L17.812 11.682Z" fill="#C15A5A"/>
<path d="M60.0067 1.58325L58.2428 21.8382L57.3577 31.9945L56.6212 40.4564H61.6999L62.4364 31.9945L63.3215 21.8382L65.0853 1.58325H60.0067Z" fill="#AB5050"/>
<path d="M84.7414 54.7304C84.7472 54.7221 84.7536 54.7143 84.7592 54.7058C84.7798 54.6748 84.7993 54.643 84.8172 54.6102C84.8186 54.6081 84.8199 54.6063 84.8208 54.6041C84.8399 54.5689 84.8575 54.5328 84.8733 54.4956C84.8777 54.4849 84.881 54.4739 84.8853 54.4632C84.8956 54.437 84.9058 54.4108 84.9144 54.3835C84.92 54.3659 84.924 54.3478 84.929 54.33C84.9345 54.3089 84.9405 54.2879 84.9452 54.2664C84.9494 54.2473 84.9521 54.2276 84.9554 54.2082C84.9582 54.1911 84.962 54.1743 84.9642 54.1569C85.018 53.7256 86.0121 45.7497 86.4561 40.5923C86.4566 40.5874 86.4568 40.5823 86.4573 40.5774C86.5851 39.0907 86.667 37.8388 86.667 37.0723C86.667 27.972 79.2634 20.5684 70.1631 20.5684H64.7068L66.3508 1.69311C66.3538 1.65892 66.3543 1.62523 66.3545 1.59155C66.3545 1.58867 66.3548 1.58596 66.3548 1.58309C66.3548 1.58258 66.3548 1.58224 66.3548 1.58173C66.3548 1.06799 66.0449 0.615193 65.5894 0.418331C65.5855 0.416638 65.5818 0.414607 65.5779 0.412915C65.5496 0.401066 65.5203 0.390909 65.4909 0.381091C65.4799 0.377536 65.4694 0.373135 65.4584 0.36975C65.4343 0.362471 65.4096 0.356716 65.3851 0.350791C65.3678 0.346729 65.3512 0.34182 65.3338 0.338435C65.3123 0.334203 65.2899 0.331495 65.2679 0.328279C65.2473 0.325232 65.227 0.321677 65.2061 0.319815C65.2026 0.319476 65.1994 0.3188 65.1958 0.318462C65.1735 0.31643 65.1515 0.316768 65.1293 0.315921C65.1144 0.315413 65.0998 0.313721 65.0849 0.313721H65.069C65.0677 0.313721 65.0663 0.313721 65.0651 0.313721H39.1038C38.4031 0.313721 37.8343 0.882472 37.8343 1.58325C37.8343 2.28235 38.4031 2.85279 39.1038 2.85279H63.7012L61.1746 31.8616C61.1743 31.8638 61.1743 31.866 61.1739 31.8682L60.5365 39.1877H16.4228L17.1607 31.5708H25.5601C26.2614 31.5708 26.8296 31.0024 26.8296 30.3013C26.8296 29.6002 26.2614 29.0318 25.5601 29.0318H17.4068L18.9648 12.9518H32.333C33.0343 12.9518 33.6025 12.3834 33.6025 11.6823C33.6025 10.9812 33.0343 10.4128 32.333 10.4128H19.2109L19.9435 2.85279H34.0257C34.7248 2.85279 35.2952 2.28235 35.2952 1.58325C35.2952 0.882472 34.7248 0.313721 34.0257 0.313721H18.7913C18.7906 0.313721 18.7901 0.313891 18.7894 0.313891C18.1931 0.313722 17.6758 0.733515 17.5507 1.31547C17.5499 1.3197 17.5483 1.32376 17.5475 1.32799C17.5411 1.35965 17.5368 1.39198 17.5326 1.42448C17.5314 1.4348 17.5292 1.44462 17.5282 1.45495C17.528 1.45698 17.5275 1.45884 17.5273 1.46087L16.66 10.4128H1.27002C0.568732 10.4128 0.000488281 10.9812 0.000488281 11.6823C0.000488281 12.3834 0.568732 12.9518 1.27002 12.9518H16.4139L14.8559 29.0318H10.3264C9.62508 29.0318 9.05684 29.6002 9.05684 30.3013C9.05684 31.0024 9.62508 31.5708 10.3264 31.5708H14.61L13.7616 40.3257C13.7614 40.3271 13.7614 40.3284 13.7612 40.3296L12.4495 53.8678C12.4494 53.8693 12.4492 53.871 12.449 53.8723L12.4485 53.8772C12.4468 53.8948 12.447 53.9121 12.446 53.9297C12.4448 53.9531 12.4424 53.9759 12.4424 53.9996C12.4424 54.0006 12.4426 54.0016 12.4426 54.0028C12.4426 54.0355 12.445 54.0677 12.4473 54.0998C12.4484 54.1101 12.448 54.1206 12.4492 54.1308C12.4526 54.1636 12.4582 54.196 12.4641 54.2281C12.4658 54.2376 12.4666 54.2473 12.4685 54.2566C12.4734 54.2809 12.4803 54.3045 12.4868 54.3283C12.4912 54.3451 12.4947 54.3622 12.4998 54.3786C12.5013 54.3832 12.5034 54.3876 12.5047 54.3923C12.5662 54.5812 12.6704 54.7508 12.8065 54.8893C12.8091 54.8918 12.8111 54.8947 12.8136 54.8971C12.8272 54.9106 12.8419 54.9228 12.8561 54.9357C12.9436 55.0159 13.0425 55.084 13.1507 55.1373C13.1732 55.1485 13.1954 55.1601 13.2184 55.1698C13.2253 55.1728 13.2328 55.1749 13.2399 55.1776C13.2717 55.1903 13.3037 55.2025 13.3367 55.2128C13.3397 55.2136 13.3426 55.2141 13.3457 55.2152C13.3832 55.2263 13.4212 55.2361 13.4599 55.2441C13.465 55.2451 13.4702 55.2455 13.4752 55.2465C13.5121 55.2534 13.5491 55.2593 13.5869 55.2631C13.5877 55.2631 13.5884 55.2632 13.5892 55.2634C13.6309 55.2675 13.6722 55.2695 13.7132 55.2695C13.7137 55.2695 13.7143 55.2693 13.715 55.2693H19.3666C19.9907 60.001 24.0473 63.6657 28.9469 63.6657C33.8461 63.6657 37.9027 60.001 38.5268 55.2693H58.89C59.5142 60.001 63.5706 63.6657 68.47 63.6657C73.3692 63.6657 77.4262 60.001 78.0504 55.2693H83.7034C83.7043 55.2693 83.7053 55.2695 83.7061 55.2695C83.7485 55.2695 83.7901 55.2669 83.8314 55.2629C83.8388 55.2622 83.846 55.2607 83.8534 55.2598C83.8864 55.2559 83.9192 55.2514 83.9514 55.2449C83.9653 55.2422 83.9787 55.2385 83.9924 55.2353C84.0173 55.2295 84.0423 55.2234 84.0667 55.2162C84.0833 55.2113 84.0993 55.2055 84.1156 55.1999C84.1364 55.1928 84.1572 55.1854 84.1777 55.1771C84.1953 55.1701 84.2121 55.1625 84.2292 55.1549C84.2478 55.1463 84.2664 55.1375 84.2845 55.1281C84.3018 55.1193 84.3184 55.1102 84.335 55.1007C84.3524 55.0906 84.3697 55.0801 84.3868 55.0692C84.4027 55.0591 84.4186 55.0488 84.4338 55.0379C84.4511 55.0259 84.4675 55.0132 84.4843 55.0003C84.4982 54.9893 84.5122 54.9785 84.5257 54.967C84.5432 54.9523 84.5596 54.9369 84.5762 54.9211C84.5877 54.9101 84.5997 54.8993 84.6109 54.8878C84.6285 54.8698 84.6453 54.8509 84.662 54.8318C84.671 54.8214 84.6803 54.8114 84.6889 54.8009C84.7075 54.7779 84.7245 54.7542 84.7414 54.7304ZM84.128 37.0725C84.128 37.5483 84.0924 38.2396 84.0322 39.0718C82.1456 38.6872 80.9849 37.3609 79.5788 35.7454C77.8202 33.7252 75.6734 31.2597 71.5579 30.8003L72.2147 23.2596C78.9455 24.2551 84.128 30.0692 84.128 37.0725ZM69.6793 23.1076L69.0159 30.7241H63.8222L64.4856 23.1076H69.6793ZM61.6999 41.7266C61.7005 41.7266 61.701 41.7266 61.7017 41.7266C61.7442 41.7266 61.7864 41.7242 61.828 41.72C61.8358 41.7193 61.8434 41.7176 61.8512 41.7166C61.8844 41.7127 61.9174 41.708 61.9499 41.7016C61.9639 41.6987 61.9776 41.6948 61.9915 41.6914C62.0169 41.6853 62.0423 41.6794 62.067 41.6719C62.0839 41.6669 62.1 41.6608 62.1164 41.655C62.1378 41.6476 62.1591 41.6403 62.1797 41.6318C62.1975 41.6245 62.2146 41.6164 62.2319 41.6083C62.2507 41.5997 62.2695 41.591 62.2876 41.5815C62.3048 41.5724 62.3218 41.5626 62.3389 41.5528C62.3563 41.5426 62.3736 41.5323 62.3905 41.5214C62.4069 41.5108 62.4225 41.4996 62.4382 41.4884C62.455 41.4766 62.4712 41.4644 62.4875 41.4517C62.502 41.44 62.5164 41.428 62.5306 41.4157C62.5467 41.4018 62.5625 41.3876 62.5777 41.3728C62.5906 41.3605 62.6034 41.3478 62.616 41.3347C62.6312 41.3188 62.6459 41.3024 62.6605 41.2857C62.6718 41.2724 62.683 41.2592 62.6938 41.2457C62.7079 41.2279 62.7212 41.2097 62.7344 41.1912C62.7444 41.1773 62.7541 41.1634 62.7636 41.1492C62.7759 41.1301 62.7878 41.1105 62.7991 41.0905C62.8077 41.0756 62.8165 41.0607 62.8243 41.0455C62.835 41.0255 62.8441 41.0052 62.8538 40.9847C62.8612 40.9683 62.8688 40.9522 62.8756 40.9353C62.8839 40.9153 62.8909 40.8948 62.8981 40.8743C62.9044 40.8562 62.911 40.8381 62.9166 40.8195C62.9222 40.7998 62.9267 40.7797 62.9318 40.7597C62.9367 40.7396 62.9421 40.7196 62.946 40.6991C62.9499 40.6792 62.9523 40.6588 62.9553 40.6385C62.9584 40.6175 62.9619 40.5969 62.964 40.5756C62.9643 40.5725 62.965 40.5696 62.9652 40.5666L63.6015 33.2625H70.1627C74.0524 33.2625 75.8068 35.2779 77.6638 37.4117C79.1962 39.1723 80.9071 41.1367 83.8151 41.6159C83.4458 45.521 82.8488 50.5341 82.5817 52.7292H78.0508C77.4268 47.9973 73.3701 44.3324 68.4704 44.3324C63.571 44.3324 59.5142 47.9974 58.8903 52.7292H38.5273C37.9034 47.9973 33.8468 44.3324 28.9472 44.3324C24.0477 44.3324 19.9907 47.9974 19.3668 52.7292H15.1107L16.1769 41.7259H61.6999V41.7266ZM28.9472 61.1263C25.0173 61.1263 21.8201 57.9291 21.8201 53.9993C21.8201 50.0695 25.0174 46.8723 28.9472 46.8723C32.877 46.8723 36.0742 50.0695 36.0742 53.9993C36.0742 57.9291 32.877 61.1263 28.9472 61.1263ZM68.47 61.1263C64.5402 61.1263 61.3432 57.9291 61.3432 53.9993C61.3432 50.0695 64.5404 46.8723 68.47 46.8723C72.4 46.8723 75.5972 50.0695 75.5972 53.9993C75.5972 57.9291 72.4 61.1263 68.47 61.1263Z" fill="black"/>
<path d="M28.9472 49.3441C26.3806 49.3441 24.2923 51.4322 24.2923 53.9991C24.2923 56.5659 26.3806 58.654 28.9472 58.654C31.5139 58.654 33.6022 56.5659 33.6022 53.9991C33.6022 51.4324 31.5139 49.3441 28.9472 49.3441ZM28.9472 56.115C27.7804 56.115 26.8313 55.1659 26.8313 53.9991C26.8313 52.8323 27.7804 51.8832 28.9472 51.8832C30.114 51.8832 31.0631 52.8323 31.0631 53.9991C31.0631 55.1659 30.1138 56.115 28.9472 56.115Z" fill="black"/>
<path d="M68.47 49.3441C65.9034 49.3441 63.8151 51.4322 63.8151 53.9991C63.8151 56.5659 65.9034 58.654 68.47 58.654C71.0367 58.654 73.125 56.5659 73.125 53.9991C73.125 51.4324 71.0367 49.3441 68.47 49.3441ZM68.47 56.115C67.3032 56.115 66.3541 55.1659 66.3541 53.9991C66.3541 52.8323 67.3032 51.8832 68.47 51.8832C69.6368 51.8832 70.5859 52.8323 70.5859 53.9991C70.5859 55.1659 69.6368 56.115 68.47 56.115Z" fill="black"/>
<path d="M13.2883 21.8381C13.2883 21.137 12.7201 20.5686 12.0188 20.5686H5.81227C5.11098 20.5686 4.54273 21.137 4.54273 21.8381C4.54273 22.5392 5.11098 23.1076 5.81227 23.1076H12.0188C12.7201 23.1076 13.2883 22.5392 13.2883 21.8381Z" fill="black"/>
</svg>
